<?xml version="1.0" encoding="utf-8"?>
<!-- Generator: Adobe Illustrator 24.1.1, SVG Export Plug-In . SVG Version: 6.00 Build 0)  -->
<svg version="1.1" id="Capa_1" xmlns="http://www.w3.org/2000/svg" xmlns:xlink="http://www.w3.org/1999/xlink" x="0px" y="0px"
	 viewBox="0 0 480 480" style="enable-background:new 0 0 480 480;" xml:space="preserve">
<style type="text/css">
	.st0{fill:#CECECE;}
	.st1{fill:#FFF0C3;}
</style>
<g>
	<g>
		<polygon class="st0" points="20.3,56 73,56 73,3.3 		"/>
	</g>
</g>
<g>
	<g>
		<rect x="353" class="st0" width="16" height="32"/>
	</g>
</g>
<g>
	<g>
		<path class="st0" d="M153,392c0,4.4,3.6,8,8,8h48c4.4,0,8-3.6,8-8H153z"/>
	</g>
</g>
<g>
	<g>
		<path class="st0" d="M177,416v8c0,4.4,3.6,8,8,8s8-3.6,8-8v-8H177z"/>
	</g>
</g>
<g>
	<g>
		<path class="st0" d="M305,32h32V0H89v64c0,4.4-3.6,8-8,8H17v408h320V163.3l-37.7-37.7c-1.5-1.5-2.3-3.5-2.3-5.7V40
			C297,35.6,300.6,32,305,32z M257,48h24v16h-24V48z M281,80v16h-64V80H281z M177,48h64v16h-64V48z M321,424h-64v-16h64V424z
			 M321,392h-64v-16h64V392z M321,360h-64v-16h64V360z M295,271.9c-12.1,27.7-34.2,49.9-62,62V392c0,13.3-10.7,24-24,24v8
			c0,13.3-10.7,24-24,24s-24-10.7-24-24v-8c-13.3,0-24-10.7-24-24v-58.1c-60.7-26.5-88.5-97.2-62-158s97.2-88.5,158-62
			C293.7,140.5,321.5,211.2,295,271.9z"/>
	</g>
</g>
<g>
	<g>
		<polygon class="st0" points="353,179.3 353,480 369,480 369,195.3 		"/>
	</g>
</g>
<g>
	<g>
		<path class="st1" d="M285.1,195.9C272.6,151,231.6,120,185,120c-57.4,0-104,46.5-104,103.9c0,46.6,31,87.6,75.9,100.1l-11.8-82.9
			l15.8-2.3l12.6,88.5c7.6,0.9,15.3,0.9,22.9,0l12.6-88.5l15.8,2.3L213.1,324C268.4,308.6,300.6,251.2,285.1,195.9z M245.4,231.2
			L217,216.9l-28.4,14.3c-2.3,1.1-4.9,1.1-7.2,0L153,216.9l-28.4,14.3l-7.2-14.3l32-16c2.3-1.1,4.9-1.1,7.2,0l28.4,14.2l28.4-14.2
			c2.3-1.1,4.9-1.1,7.2,0l32,16L245.4,231.2z"/>
	</g>
</g>
<g>
	<g>
		<path class="st0" d="M153,339.5V352h64v-12.5C196.1,345.5,173.9,345.5,153,339.5z"/>
	</g>
</g>
<g>
	<g>
		<rect x="153" y="368" class="st0" width="64" height="8"/>
	</g>
</g>
<g>
	<g>
		<path class="st0" d="M472,138.3L381.7,48H313v68.7l90.3,90.3c3.1,3.1,8.2,3.1,11.3,0l57.4-57.4C475.2,146.5,475.2,141.5,472,138.3
			z M353,96c-4.4,0-8-3.6-8-8s3.6-8,8-8s8,3.6,8,8S357.4,96,353,96z M406.7,181.7l-11.3-11.3l40-40l11.3,11.3L406.7,181.7z"/>
	</g>
</g>
</svg>
