<?xml version="1.0" encoding="utf-8"?>
<!-- Generator: Adobe Illustrator 24.1.1, SVG Export Plug-In . SVG Version: 6.00 Build 0)  -->
<svg version="1.1" id="Capa_1" xmlns="http://www.w3.org/2000/svg" xmlns:xlink="http://www.w3.org/1999/xlink" x="0px" y="0px"
	 viewBox="0 0 408 408" style="enable-background:new 0 0 408 408;" xml:space="preserve">
<style type="text/css">
	.st0{opacity:0.2;}
	.st1{fill:#CECECE;}
</style>
<g class="st0">
	<g>
		<path class="st1" d="M332,121.9H184.8l-29.3-34.8c-1-1.2-2.5-1.8-4-1.8H32.8C14.6,85.5,0,100.2,0,118.3v214
			c0,18.2,14.8,32.9,33,33h299c18.2,0,32.9-14.8,33-33V154.9C364.9,136.7,350.2,121.9,332,121.9z"/>
	</g>
</g>
<g class="st0">
	<g>
		<path class="st1" d="M375.2,79.3H228l-29.3-34.8c-1-1.2-2.5-1.8-4-1.8H76c-16.5,0-30.4,12.2-32.6,28.5h108.3
			c5.7,0,11.1,2.5,14.7,6.8l25,29.7H332c26,0,47.1,21.1,47.1,47.1v167.5c16.5-2.1,28.9-16.1,28.9-32.7V112.2
			C408,94.1,393.3,79.4,375.2,79.3z"/>
	</g>
</g>
</svg>
