<?xml version="1.0" encoding="utf-8"?>
<!-- Generator: Adobe Illustrator 24.1.1, SVG Export Plug-In . SVG Version: 6.00 Build 0)  -->
<svg version="1.1" id="Layer_1" xmlns="http://www.w3.org/2000/svg" xmlns:xlink="http://www.w3.org/1999/xlink" x="0px" y="0px"
	 viewBox="0 0 128 128" style="enable-background:new 0 0 128 128;" xml:space="preserve">
<style type="text/css">
	.st0{fill:#CECECE;}
</style>
<path class="st0" d="M96.3,58.2v51.3c0,3.9-3.1,7-7,7H74.5V90.8c0-3.9-3.1-7-7-7h-7.7c-3.9,0-7,3.1-7,7v25.7H38c-3.9,0-7-3.1-7-7
	V58.2c0-3.9,3.1-7,7-7h51.3C93.2,51.1,96.3,54.3,96.3,58.2z"/>
<path class="st0" d="M58.8,11.7l-40,44.1c-4.1,4.5-0.9,11.7,5.2,11.7h80c6.1,0,9.3-7.2,5.2-11.7l-40-44.1
	C66.4,8.6,61.6,8.6,58.8,11.7z"/>
</svg>
