<?xml version="1.0" encoding="utf-8"?>
<!-- Generator: Adobe Illustrator 24.1.1, SVG Export Plug-In . SVG Version: 6.00 Build 0)  -->
<svg version="1.1" id="Capa_1" xmlns="http://www.w3.org/2000/svg" xmlns:xlink="http://www.w3.org/1999/xlink" x="0px" y="0px"
	 viewBox="0 0 512 512" style="enable-background:new 0 0 512 512;" xml:space="preserve">
<style type="text/css">
	.st0{fill:#CECECE;}
</style>
<g>
	<g>
		
			<rect x="32.1" y="223.7" transform="matrix(0.7071 -0.7071 0.7071 0.7071 -111.7717 222.5621)" class="st0" width="361.4" height="45"/>
	</g>
</g>
<g>
	<g>
		
			<rect x="85.1" y="276.7" transform="matrix(0.7071 -0.7071 0.7071 0.7071 -133.7384 275.5839)" class="st0" width="361.4" height="45"/>
	</g>
</g>
<g>
	<g>
		
			<rect x="383.9" y="53.1" transform="matrix(0.7071 -0.7071 0.7071 0.7071 36.8433 315.1813)" class="st0" width="30" height="120"/>
	</g>
</g>
<g>
	<g>
		<path class="st0" d="M494.3,17.7c-23.4-23.4-61.4-23.4-84.9,0l-21.2,21.2l84.9,84.9l21.2-21.2C517.8,79.1,517.8,41.1,494.3,17.7z"
			/>
	</g>
</g>
<g>
	<g>
		<path class="st0" d="M54.8,386.2L1.3,491c-5.3,12.4,7.2,25,19.7,19.7l104.8-53.6L54.8,386.2z"/>
	</g>
</g>
<g>
	<g>
		<path class="st0" d="M176.7,113.1c-0.2-4.1,14.1-49.5-23.4-87C133.2,5.9,104.8-3,77.3,0.9C71.6,1.7,67,5.6,65.2,11
			c-1.8,5.4-0.4,11.3,3.6,15.4l21.2,21V90H47.3L26.4,68.8c-4-4-10-5.4-15.4-3.6C5.6,67,1.7,71.7,0.9,77.3
			c-3.9,27.5,5,55.9,25.2,76.1c38.3,38.3,83.3,23.6,87.4,23.8l47,47l63.6-63.6L176.7,113.1z"/>
	</g>
</g>
<g>
	<g>
		<path class="st0" d="M485.9,358.6c-37.6-37.6-82.9-23.2-87-23.4l-47.4-47.4l-63.6,63.6l47,47c0.2,4.1-15.1,48.5,23.8,87.4
			c20.2,20.2,48.6,29.1,76.1,25.2c5.6-0.8,10.3-4.7,12.1-10.1c1.8-5.4,0.4-11.3-3.6-15.4L422,464.7V422h42.7v0l21,21.2
			c4,4,10,5.4,15.4,3.6c5.4-1.8,9.3-6.5,10.1-12.1C515,407.2,506.1,378.8,485.9,358.6z"/>
	</g>
</g>
</svg>
