<?xml version="1.0" encoding="utf-8"?>
<!-- Generator: Adobe Illustrator 24.1.1, SVG Export Plug-In . SVG Version: 6.00 Build 0)  -->
<svg version="1.1" id="Layer_1" xmlns="http://www.w3.org/2000/svg" xmlns:xlink="http://www.w3.org/1999/xlink" x="0px" y="0px"
	 viewBox="0 0 512 512" style="enable-background:new 0 0 512 512;" xml:space="preserve">
<style type="text/css">
	.st0{fill:#CECECE;}
</style>
<path class="st0" d="M176.5,95.3V0h-1.1c-4,0-7.8,1.6-10.6,4.4l-96.4,96.4c-2.8,2.8-4.4,6.6-4.4,10.6v1.1h95.3
	C168.8,112.5,176.5,104.8,176.5,95.3z"/>
<path class="st0" d="M400.3,0H206.5v95.3c0,26-21.1,47.1-47.1,47.1H64v322.4c0,26,21.1,47.1,47.1,47.1h289.2
	c25.9,0,47.1-21,47.1-47.1V47.1C447.5,21.2,426.5,0,400.3,0z M180.9,261.5c5.9-5.9,15.4-5.9,21.2,0l38.7,38.7V191.7
	c0-8.3,6.7-15,15-15s15,6.7,15,15v108.4l38.7-38.7c5.9-5.9,15.4-5.9,21.2,0c5.9,5.9,5.9,15.4,0,21.2l-64.3,64.3
	c-5.9,5.9-15.4,5.9-21.2,0l-64.3-64.3C175,276.8,175,267.3,180.9,261.5z M320,415.6H191.5c-8.3,0-15-6.7-15-15c0-8.3,6.7-15,15-15
	H320c8.3,0,15,6.7,15,15C335,408.9,328.3,415.6,320,415.6z"/>
</svg>
