<?xml version="1.0" encoding="utf-8"?>
<!-- Generator: Adobe Illustrator 24.1.1, SVG Export Plug-In . SVG Version: 6.00 Build 0)  -->
<svg version="1.1" id="Capa_1" xmlns="http://www.w3.org/2000/svg" xmlns:xlink="http://www.w3.org/1999/xlink" x="0px" y="0px"
	 viewBox="0 0 464.1 464.1" style="enable-background:new 0 0 464.1 464.1;" xml:space="preserve">
<style type="text/css">
	.st0{fill:#CECECE;}
</style>
<g>
	<g>
		<path class="st0" d="M458.9,326.5c-3.8-4.1-9.1-6.5-14.7-6.5h-1.7c-4.6,0-9.1,1.6-12.6,4.6l-54,68.2c-7.6,9.6-19.1,15.2-31.4,15.2
			H300l-52-16h52c11,0,20-9,20-20s-9-20-20-20H200c-1,0-2-0.2-2.9-0.5l-66.4-25.6c-27-8-55.6-8.2-82.7-0.5v107.9L168.7,456h199.8
			c2.4,0,4.6-1,6.1-2.9l82.2-98c0.2-0.3,0.5-0.5,0.7-0.7C465.7,347.1,466.3,334.6,458.9,326.5z"/>
	</g>
</g>
<g>
	<g>
		<path class="st0" d="M376,144c-48.6,0-88,39.4-88,88s39.4,88,88,88s88-39.4,88-88C463.9,183.5,424.6,144.1,376,144z M437.4,213.9
			L437.4,213.9l-26.8,24.5l13,39.1c1.4,4.2-0.9,8.7-5.1,10.1c-2.3,0.8-4.8,0.4-6.9-0.9L376,263.6l-35.6,23.2
			c-3.7,2.4-8.7,1.4-11.1-2.4c-1.3-1.9-1.6-4.3-1-6.6l11.3-39.4l-25.3-24.7c-3.2-3.1-3.2-8.2-0.1-11.3c1.3-1.3,3-2.1,4.8-2.4
			l34.4-4.1l15.4-31.4c1.2-2.9,4.1-4.6,7.2-4.5c3.1,0,5.9,1.8,7.2,4.6l14.8,31.3l34.9,4.1c4.4,0.5,7.5,4.5,7,8.9
			C439.7,210.9,438.8,212.6,437.4,213.9z"/>
	</g>
</g>
<g>
	<g>
		<path class="st0" d="M395.9,230.1l17.8-16.2l-22-2.6c-2.7-0.3-5.1-2-6.3-4.5l-9.6-20.3l-10,20.4c-1.2,2.4-3.5,4.1-6.2,4.4
			l-22.1,2.7l16.7,16.3c2.1,2.1,2.9,5.1,2.1,7.9l-6.7,23.4l22-14.3c2.7-1.7,6.1-1.7,8.7,0l20.8,13.5l-7.4-22.3
			C392.7,235.6,393.6,232.3,395.9,230.1z"/>
	</g>
</g>
<g>
	<g>
		<path class="st0" d="M288,8v88c0,4.4-3.6,8-8,8h-80c-4.4,0-8-3.6-8-8V8H72v256h205.1c-17.7-54.6,12.1-113.2,66.7-130.9
			c10.4-3.4,21.3-5.1,32.2-5.1c10.9,0,21.7,1.7,32,5.1V8H288z M90.3,66.4l32-32c3.1-3.1,8.2-3.1,11.3,0l32,32
			c3.1,3.1,3.1,8.2,0,11.3c-1.5,1.5-3.5,2.3-5.7,2.3h-8v16c0,4.4-3.6,8-8,8h-32c-4.4,0-8-3.6-8-8V80h-8c-4.4,0-8-3.6-8-8
			C88,69.9,88.8,67.9,90.3,66.4z M248,240c0,4.4-3.6,8-8,8H96c-4.4,0-8-3.6-8-8v-48c0-4.4,3.6-8,8-8h144c4.4,0,8,3.6,8,8V240z"/>
	</g>
</g>
<g>
	<g>
		<rect y="312" class="st0" width="32" height="144"/>
	</g>
</g>
<g>
	<g>
		<path class="st0" d="M128,51.3l-13.2,13.2c3.1,1.2,5.2,4.2,5.2,7.5v16h16V72c0-3.3,2.1-6.3,5.2-7.5L128,51.3z"/>
	</g>
</g>
<g>
	<g>
		<rect x="208" y="8" class="st0" width="64" height="80"/>
	</g>
</g>
<g>
	<g>
		<rect x="104" y="200" class="st0" width="128" height="32"/>
	</g>
</g>
</svg>
